<?xml version="1.0" encoding="utf-8"?>
<!-- Generator: Adobe Illustrator 16.0.0, SVG Export Plug-In . SVG Version: 6.00 Build 0)  -->
<!DOCTYPE svg PUBLIC "-//W3C//DTD SVG 1.1//EN" "http://www.w3.org/Graphics/SVG/1.1/DTD/svg11.dtd">
<svg version="1.1" id="Layer_1" xmlns="http://www.w3.org/2000/svg" xmlns:xlink="http://www.w3.org/1999/xlink" x="0px" y="0px"
	 width="16px" height="16px" viewBox="0 0 16 16" enable-background="new 0 0 16 16" xml:space="preserve">
<g>
	<g>
		<path d="M8,0C3.582,0,0,3.582,0,8c0,4.418,3.582,8,8,8c4.418,0,8-3.582,8-8C16,3.582,12.418,0,8,0z M8,12.999
			c-0.559,0-1.012-0.446-1.012-0.997c0-0.55,0.453-0.997,1.012-0.997c0.559,0,1.012,0.447,1.012,0.997
			C9.012,12.553,8.559,12.999,8,12.999z M9.012,8.941C9.012,9.52,8.559,9.989,8,9.989c-0.559,0-1.012-0.47-1.012-1.048V4.049
			c0-0.579,0.453-1.048,1.012-1.048c0.559,0,1.012,0.47,1.012,1.048V8.941z"/>
	</g>
</g>
</svg>
