<?xml version="1.0" encoding="utf-8"?>
<!-- Generator: Adobe Illustrator 16.0.0, SVG Export Plug-In . SVG Version: 6.00 Build 0)  -->
<!DOCTYPE svg PUBLIC "-//W3C//DTD SVG 1.1//EN" "http://www.w3.org/Graphics/SVG/1.1/DTD/svg11.dtd">
<svg version="1.1" id="Layer_1" xmlns="http://www.w3.org/2000/svg" xmlns:xlink="http://www.w3.org/1999/xlink" x="0px" y="0px"
	 width="16px" height="16px" viewBox="0 0 16 16" enable-background="new 0 0 16 16" xml:space="preserve">
<path d="M11,4.109L11,4.109h2c0.553,0,1,0.448,1,1v10c0,0.553-0.447,1-1,1H2.5c-1.381,0-2.5-1.119-2.5-2.5V2.61
	c0-1.381,1.119-2.501,2.5-2.501H13c0.553,0,1,0.448,1,1c0,0.553-0.447,1.001-1,1.001h-2H5H3c-0.552,0-1,0.447-1,1s0.448,1,1,1h2v4
	l1-1l1,1v-4H11z"/>
</svg>
