<?xml version="1.0" encoding="utf-8"?>
<!-- Generator: Adobe Illustrator 16.0.0, SVG Export Plug-In . SVG Version: 6.00 Build 0)  -->
<!DOCTYPE svg PUBLIC "-//W3C//DTD SVG 1.1//EN" "http://www.w3.org/Graphics/SVG/1.1/DTD/svg11.dtd">
<svg version="1.1" id="Layer_1" xmlns="http://www.w3.org/2000/svg" xmlns:xlink="http://www.w3.org/1999/xlink" x="0px" y="0px"
	 width="16px" height="16px" viewBox="0 0 16 16" enable-background="new 0 0 16 16" xml:space="preserve">
<path d="M13.991-0.001H1.993C0.004-0.001,0,2,0,2v7.999C0,9.999,0.011,12,2,12h4c0,0,0.837,0.023,1.146,0.374l4.521,3.539
	c0.074,0.059,0.119,0.088,0.163,0.088c0.125,0,0.162-0.086,0.162-0.228v-3.349c0-0.236,0.156-0.425,0.366-0.425H14
	c1.958,0,2-2.001,2-2.001V2C16,2,15.98-0.001,13.991-0.001z M14,9.999h-4v2l-2.572-2H2V2h12V9.999z"/>
</svg>
