<?xml version="1.0" encoding="utf-8"?>
<!-- Generator: Adobe Illustrator 16.0.0, SVG Export Plug-In . SVG Version: 6.00 Build 0)  -->
<!DOCTYPE svg PUBLIC "-//W3C//DTD SVG 1.0//EN" "http://www.w3.org/TR/2001/REC-SVG-20010904/DTD/svg10.dtd">
<svg version="1.0" id="Layer_1" xmlns="http://www.w3.org/2000/svg" xmlns:xlink="http://www.w3.org/1999/xlink" x="0px" y="0px"
	 width="16px" height="16px" viewBox="0 0 16 16" enable-background="new 0 0 16 16" xml:space="preserve">
<path fill-rule="evenodd" clip-rule="evenodd" d="M5,6C4.448,6,4,6.447,4,7s0.448,1,1,1s1-0.447,1-1S5.552,6,5,6z M8,9
	c-0.552,0-1,0.447-1,1s0.448,1,1,1s1-0.447,1-1S8.552,9,8,9z M5,9c-0.552,0-1,0.447-1,1s0.448,1,1,1s1-0.447,1-1S5.552,9,5,9z
	 M14,1.001h-2C12,0.448,11.553,0,11,0s-1,0.448-1,1.001H6C6,0.448,5.552,0,5,0S4,0.448,4,1.001H2C0.896,1.001,0,1.896,0,3v10
	c0,1.105,0.896,2,2,2h12c1.104,0,2-0.895,2-2V3C16,1.896,15.104,1.001,14,1.001z M14,13H2V3h2c0,0.553,0.448,1,1,1s1-0.447,1-1h4
	c0,0.553,0.447,1,1,1s1-0.447,1-1h2V13z M11,6c-0.553,0-1,0.447-1,1s0.447,1,1,1s1-0.447,1-1S11.553,6,11,6z M8,6
	C7.448,6,7,6.447,7,7s0.448,1,1,1s1-0.447,1-1S8.552,6,8,6z M11,9c-0.553,0-1,0.447-1,1s0.447,1,1,1s1-0.447,1-1S11.553,9,11,9z"/>
</svg>
