<?xml version="1.0" encoding="utf-8"?>
<!-- Generator: Adobe Illustrator 16.0.0, SVG Export Plug-In . SVG Version: 6.00 Build 0)  -->
<!DOCTYPE svg PUBLIC "-//W3C//DTD SVG 1.0//EN" "http://www.w3.org/TR/2001/REC-SVG-20010904/DTD/svg10.dtd">
<svg version="1.0" id="Layer_1" xmlns="http://www.w3.org/2000/svg" xmlns:xlink="http://www.w3.org/1999/xlink" x="0px" y="0px"
	 width="16px" height="16px" viewBox="0 0 16 16" enable-background="new 0 0 16 16" xml:space="preserve">
<path fill-rule="evenodd" clip-rule="evenodd" d="M0,5.993V4.31c0-0.718,0.597-1.299,1.333-1.299h1.678V1.598
	c0-0.329,0.337-1.597,0.753-1.597H5.27c0.416,0,0.753,1.268,0.753,1.597v1.413h4.988V1.598c0-0.329,0.338-1.597,0.753-1.597h1.506
	c0.416,0,0.753,1.268,0.753,1.597v1.413h0.645c0.737,0,1.334,0.581,1.334,1.299v1.684H0z M16.001,7.01v7.691
	c0,0.718-0.597,1.3-1.334,1.3H1.333c-0.736,0-1.333-0.582-1.333-1.3V7.01H16.001z"/>
</svg>
