<?xml version="1.0" encoding="utf-8"?>
<!-- Generator: Adobe Illustrator 16.0.0, SVG Export Plug-In . SVG Version: 6.00 Build 0)  -->
<!DOCTYPE svg PUBLIC "-//W3C//DTD SVG 1.1//EN" "http://www.w3.org/Graphics/SVG/1.1/DTD/svg11.dtd">
<svg version="1.1" id="Layer_1" xmlns="http://www.w3.org/2000/svg" xmlns:xlink="http://www.w3.org/1999/xlink" x="0px" y="0px"
	 width="16px" height="16px" viewBox="0 0 16 16" enable-background="new 0 0 16 16" xml:space="preserve">
<path d="M7.154,12.374l4.52,3.539c0.074,0.059,0.119,0.088,0.162,0.088c0.125,0,0.164-0.086,0.164-0.227v-3.35
	C12,12.188,12.156,12,12.365,12h1.643c1.992,0,1.99-0.96,1.99-0.96V1.039c0,0,0-1.04-1.998-1.04H2.001c-2,0-2,1.04-2,1.04V11.04
	c0,0-0.001,0.96,2.007,0.96h4C6.008,12,6.845,12.023,7.154,12.374z"/>
</svg>
