<?xml version="1.0" encoding="utf-8"?>
<!-- Generator: Adobe Illustrator 16.0.0, SVG Export Plug-In . SVG Version: 6.00 Build 0)  -->
<!DOCTYPE svg PUBLIC "-//W3C//DTD SVG 1.1//EN" "http://www.w3.org/Graphics/SVG/1.1/DTD/svg11.dtd">
<svg version="1.1" id="Layer_1" xmlns="http://www.w3.org/2000/svg" xmlns:xlink="http://www.w3.org/1999/xlink" x="0px" y="0px"
	 width="16px" height="16px" viewBox="0 0 16 16" enable-background="new 0 0 16 16" xml:space="preserve">
<path d="M14.424,0.147c-0.193-0.196-0.512-0.196-0.705,0l-7.44,7.414c-0.195,0.196-0.513,0.196-0.707,0L2.312,4.237
	C2.216,4.14,2.089,4.09,1.963,4.089c-0.129,0-0.259,0.047-0.357,0.148l-1.44,1.297C0.07,5.632,0.018,5.755,0.018,5.883
	c0,0.13,0.052,0.266,0.148,0.363l3.287,3.453c0.194,0.195,0.513,0.516,0.707,0.713l1.413,1.426c0.194,0.195,0.512,0.195,0.707,0
	l9.558-9.552c0.195-0.195,0.195-0.517,0-0.713L14.424,0.147z"/>
</svg>
