<?xml version="1.0" encoding="utf-8"?>
<!-- Generator: Adobe Illustrator 16.0.0, SVG Export Plug-In . SVG Version: 6.00 Build 0)  -->
<!DOCTYPE svg PUBLIC "-//W3C//DTD SVG 1.1//EN" "http://www.w3.org/Graphics/SVG/1.1/DTD/svg11.dtd">
<svg version="1.1" id="Layer_1" xmlns="http://www.w3.org/2000/svg" xmlns:xlink="http://www.w3.org/1999/xlink" x="0px" y="0px"
	 width="16px" height="16px" viewBox="0 0 16 16" enable-background="new 0 0 16 16" xml:space="preserve">
<g>
	<g>
		<path d="M8,0C3.582,0,0,3.581,0,7.999C0,12.418,3.582,16,8,16c4.418,0,8-3.582,8-8.001C16,3.581,12.418,0,8,0z M13.17,6.373
			l-5.739,5.738c-0.117,0.117-0.308,0.117-0.424,0l-0.848-0.856c-0.116-0.118-0.308-0.311-0.424-0.428L3.761,8.752
			C3.703,8.694,3.672,8.612,3.672,8.535c0-0.078,0.031-0.152,0.089-0.211l0.865-0.78c0.059-0.06,0.137-0.088,0.214-0.088
			c0.076,0.001,0.152,0.031,0.21,0.088l1.957,1.998c0.117,0.119,0.307,0.119,0.424,0l4.467-4.455c0.116-0.117,0.308-0.117,0.424,0
			l0.849,0.858C13.287,6.062,13.287,6.255,13.17,6.373z"/>
	</g>
</g>
</svg>
