<?xml version="1.0" encoding="utf-8"?>
<!-- Generator: Adobe Illustrator 16.0.0, SVG Export Plug-In . SVG Version: 6.00 Build 0)  -->
<!DOCTYPE svg PUBLIC "-//W3C//DTD SVG 1.0//EN" "http://www.w3.org/TR/2001/REC-SVG-20010904/DTD/svg10.dtd">
<svg version="1.0" id="Layer_1" xmlns="http://www.w3.org/2000/svg" xmlns:xlink="http://www.w3.org/1999/xlink" x="0px" y="0px"
	 width="16px" height="16px" viewBox="0.5 16.5 16 16" enable-background="new 0.5 16.5 16 16" xml:space="preserve">
<path fill="#231F20" d="M15.183,17.817c-1.757-1.757-4.606-1.757-6.364,0.001l-7,7c-1.758,1.758-1.758,4.607-0.001,6.364
	s4.606,1.758,6.364,0l1.482-1.44c-0.797-0.018-1.524-0.277-2.14-0.698l-0.757,0.725c-0.977,0.977-2.56,0.977-3.536,0
	c-0.976-0.976-0.976-2.56,0.001-3.536l7-7c0.977-0.977,2.56-0.977,3.535,0c0.977,0.977,0.978,2.559,0.001,3.535L10.28,26.28
	c-0.293,0.293-0.768,0.293-1.061,0s-0.293-0.768,0-1.061l2.634-2.659c0.195-0.195,0.196-0.512,0-0.707l-0.707-0.707
	c-0.195-0.195-0.512-0.195-0.707,0l-2.634,2.659c-1.074,1.074-1.074,2.815,0,3.889c1.074,1.074,2.815,1.074,3.889,0l3.488-3.513
	C16.939,22.424,16.939,19.574,15.183,17.817z"/>
</svg>
