<?xml version="1.0" encoding="utf-8"?>
<!-- Generator: Adobe Illustrator 16.0.0, SVG Export Plug-In . SVG Version: 6.00 Build 0)  -->
<!DOCTYPE svg PUBLIC "-//W3C//DTD SVG 1.1//EN" "http://www.w3.org/Graphics/SVG/1.1/DTD/svg11.dtd">
<svg version="1.1" id="Layer_1" xmlns="http://www.w3.org/2000/svg" xmlns:xlink="http://www.w3.org/1999/xlink" x="0px" y="0px"
	 width="16px" height="16px" viewBox="0 0 16 16" enable-background="new 0 0 16 16" xml:space="preserve">
<path d="M12.5,7c-0.359,0-0.927,0-1.5,0V9c0.354,0,0.7,0,1,0c0.189,0,0.364,0,0.5,0c1.933,0,3.5,1.567,3.5,3.5S14.433,16,12.5,16
	S9,14.434,9,12.5c0-0.359,0-0.926,0-1.5H7c0,0.354,0,0.701,0,1c0,0.189,0,0.363,0,0.5C7,14.434,5.433,16,3.5,16S0,14.434,0,12.5
	S1.567,9,3.5,9C3.859,9,4.427,9,5,9V7C4.647,7,4.299,7,4,7C3.811,7,3.637,7,3.5,7C1.567,7,0,5.434,0,3.5C0,1.567,1.567,0,3.5,0
	S7,1.567,7,3.5C7,3.859,7,4.427,7,5h2c0-0.353,0-0.701,0-1c0-0.189,0-0.363,0-0.5C9,1.567,10.567,0,12.5,0S16,1.567,16,3.5
	C16,5.434,14.433,7,12.5,7z M5,3.5C5,2.672,4.328,2,3.5,2S2,2.672,2,3.5C2,4.329,2.672,5,3.5,5C3.621,5,3.805,5,4,5c0.462,0,1,0,1,0
	S5,3.921,5,3.5z M5,12c0-0.461,0-1,0-1s-1.079,0-1.5,0C2.672,11,2,11.672,2,12.5S2.672,14,3.5,14S5,13.328,5,12.5
	C5,12.379,5,12.195,5,12z M11,12.5c0,0.828,0.672,1.5,1.5,1.5s1.5-0.672,1.5-1.5S13.328,11,12.5,11c-0.121,0-0.305,0-0.5,0
	c-0.462,0-1,0-1,0S11,12.08,11,12.5z M9,7H7V9h2V7z M12.5,2C11.672,2,11,2.672,11,3.5c0,0.121,0,0.304,0,0.5c0,0.463,0,1,0,1
	s1.079,0,1.5,0C13.328,5,14,4.329,14,3.5C14,2.672,13.328,2,12.5,2z"/>
</svg>
