<?xml version="1.0" encoding="utf-8"?>
<!-- Generator: Adobe Illustrator 16.0.0, SVG Export Plug-In . SVG Version: 6.00 Build 0)  -->
<!DOCTYPE svg PUBLIC "-//W3C//DTD SVG 1.0//EN" "http://www.w3.org/TR/2001/REC-SVG-20010904/DTD/svg10.dtd">
<svg version="1.0" id="Layer_1" xmlns="http://www.w3.org/2000/svg" xmlns:xlink="http://www.w3.org/1999/xlink" x="0px" y="0px"
	 width="16px" height="16px" viewBox="0.5 16.5 16 16" enable-background="new 0.5 16.5 16 16" xml:space="preserve">
<g>
	<g>
		<path fill-rule="evenodd" clip-rule="evenodd" fill="#231F20" d="M12.5,26.507c0.553,0,1-0.448,1-1.001s-0.447-1.001-1-1.001
			s-1,0.448-1,1.001S11.947,26.507,12.5,26.507z M15.168,16.5H1.834c-0.737,0-1.334,0.597-1.334,1.334v10.331
			c0,0.737,0.597,1.335,1.334,1.335h13.334c0.736,0,1.333-0.598,1.333-1.335V17.834C16.501,17.097,15.904,16.5,15.168,16.5z
			 M14.501,27.497H2.5v-3.993h12.001V27.497z M14.501,20.502H2.5v-2.001h12.001V20.502z"/>
	</g>
</g>
</svg>
