<?xml version="1.0" encoding="utf-8"?>
<!-- Generator: Adobe Illustrator 16.0.0, SVG Export Plug-In . SVG Version: 6.00 Build 0)  -->
<!DOCTYPE svg PUBLIC "-//W3C//DTD SVG 1.1//EN" "http://www.w3.org/Graphics/SVG/1.1/DTD/svg11.dtd">
<svg version="1.1" id="Layer_1" xmlns="http://www.w3.org/2000/svg" xmlns:xlink="http://www.w3.org/1999/xlink" x="0px" y="0px"
	 width="16px" height="16px" viewBox="0 0 16 16" enable-background="new 0 0 16 16" xml:space="preserve">
<g>
	<g>
		<path d="M13.657,2.343c-3.124-3.125-8.189-3.124-11.314,0c-3.124,3.123-3.124,8.189,0.001,11.313
			c3.124,3.124,8.189,3.124,11.313,0.001C16.782,10.533,16.782,5.467,13.657,2.343z M11.675,10.171
			c0.43,0.43,0.441,1.114,0.027,1.529c-0.415,0.415-1.1,0.402-1.528-0.027L8.001,9.501L5.82,11.682
			c-0.43,0.429-1.114,0.441-1.528,0.027c-0.415-0.415-0.402-1.1,0.026-1.529L6.5,7.999L4.318,5.817
			C3.889,5.389,3.877,4.705,4.292,4.29C4.706,3.875,5.391,3.887,5.82,4.316l2.181,2.181l2.173-2.173
			c0.429-0.429,1.113-0.441,1.528-0.026c0.414,0.415,0.402,1.099-0.027,1.528L9.503,7.999L11.675,10.171z"/>
	</g>
</g>
</svg>
