<?xml version="1.0" encoding="utf-8"?>
<!-- Generator: Adobe Illustrator 16.0.0, SVG Export Plug-In . SVG Version: 6.00 Build 0)  -->
<!DOCTYPE svg PUBLIC "-//W3C//DTD SVG 1.1//EN" "http://www.w3.org/Graphics/SVG/1.1/DTD/svg11.dtd">
<svg version="1.1" id="Layer_1" xmlns="http://www.w3.org/2000/svg" xmlns:xlink="http://www.w3.org/1999/xlink" x="0px" y="0px"
	 width="16px" height="16px" viewBox="0 0 16 16" enable-background="new 0 0 16 16" xml:space="preserve">
<path d="M12.872,1.562c0.195,0.194,0.195,0.513,0,0.707L8.983,6.16c-0.193,0.194-0.193,0.513,0,0.708l3.887,3.892
	c0.195,0.194,0.195,0.513,0,0.707l-1.416,1.413c-0.193,0.194-0.512,0.194-0.707,0L6.862,8.988c-0.194-0.194-0.513-0.194-0.707,0
	l-3.889,3.889c-0.194,0.195-0.513,0.195-0.707,0l-1.414-1.416c-0.194-0.193-0.194-0.512,0-0.707l3.89-3.889
	c0.194-0.194,0.194-0.513,0-0.708L0.148,2.266c-0.194-0.195-0.194-0.513,0-0.707l1.415-1.414c0.194-0.194,0.513-0.194,0.707,0
	l3.885,3.891c0.194,0.195,0.513,0.195,0.707,0.001l3.888-3.89c0.195-0.193,0.514-0.193,0.707,0L12.872,1.562z"/>
</svg>
