<?xml version="1.0" encoding="utf-8"?>
<!-- Generator: Adobe Illustrator 16.0.0, SVG Export Plug-In . SVG Version: 6.00 Build 0)  -->
<!DOCTYPE svg PUBLIC "-//W3C//DTD SVG 1.0//EN" "http://www.w3.org/TR/2001/REC-SVG-20010904/DTD/svg10.dtd">
<svg version="1.0" id="Layer_1" xmlns="http://www.w3.org/2000/svg" xmlns:xlink="http://www.w3.org/1999/xlink" x="0px" y="0px"
	 width="16px" height="16px" viewBox="0.5 16.5 16 16" enable-background="new 0.5 16.5 16 16" xml:space="preserve">
<g>
	<g>
		<path fill-rule="evenodd" clip-rule="evenodd" fill="#231F20" d="M12.168,16.5H1.847c-0.743,0-1.347,0.596-1.347,1v13.334
			c0,1.069,0.604,1.666,1.347,1.666h10.321c0.735,0,1.332-0.597,1.332-1.333V17.833C13.5,17.096,12.903,16.5,12.168,16.5z M7.5,29.5
			h-4c-0.553,0-1-0.447-1-1s0.447-1,1-1h4c0.553,0,1,0.447,1,1S8.053,29.5,7.5,29.5z M10.5,25.5h-7c-0.553,0-1-0.447-1-1
			s0.447-1,1-1h7c0.553,0,1,0.447,1,1S11.053,25.5,10.5,25.5z M10.5,21.5h-7c-0.553,0-1-0.447-1-1s0.447-1,1-1h7
			c0.553,0,1,0.447,1,1S11.053,21.5,10.5,21.5z"/>
	</g>
</g>
</svg>
