<?xml version="1.0" encoding="utf-8"?>
<!-- Generator: Adobe Illustrator 16.0.0, SVG Export Plug-In . SVG Version: 6.00 Build 0)  -->
<!DOCTYPE svg PUBLIC "-//W3C//DTD SVG 1.1//EN" "http://www.w3.org/Graphics/SVG/1.1/DTD/svg11.dtd">
<svg version="1.1" id="Layer_1" xmlns="http://www.w3.org/2000/svg" xmlns:xlink="http://www.w3.org/1999/xlink" x="0px" y="0px"
	 width="16px" height="16px" viewBox="0 0 16 16" enable-background="new 0 0 16 16" xml:space="preserve">
<path d="M0,14v-3h2v3.002h10V2H2V5H0V2C0,0.896,0.896,0,2,0h10C13.105,0,14,0.896,14,2v12c0,1.105-0.895,2-2,2H2
	C0.896,16,0,15.105,0,14z M4.137,4.25c0.363-0.348,0.951-0.348,1.314,0l3.272,3.075c0.102,0.097,0.164,0.212,0.211,0.331
	c0.001,0.002,0.001,0.003,0.002,0.005C8.971,7.752,8.99,7.846,8.993,7.942C8.997,7.977,9,8.011,8.997,8.047
	C8.995,8.089,8.981,8.129,8.971,8.171C8.937,8.347,8.867,8.518,8.723,8.655L5.451,11.73c-0.363,0.348-0.951,0.348-1.314,0
	c-0.362-0.348-0.362-0.91,0-1.258L6,9H1C0.467,9,0,8.499,0,7.99C0,7.482,0.467,7,1,7h5L4.137,5.507
	C3.774,5.161,3.774,4.596,4.137,4.25z"/>
</svg>
