<?xml version="1.0" encoding="utf-8"?>
<!-- Generator: Adobe Illustrator 16.0.0, SVG Export Plug-In . SVG Version: 6.00 Build 0)  -->
<!DOCTYPE svg PUBLIC "-//W3C//DTD SVG 1.1//EN" "http://www.w3.org/Graphics/SVG/1.1/DTD/svg11.dtd">
<svg version="1.1" id="Layer_1" xmlns="http://www.w3.org/2000/svg" xmlns:xlink="http://www.w3.org/1999/xlink" x="0px" y="0px"
	 width="16px" height="16px" viewBox="0 0 16 16" enable-background="new 0 0 16 16" xml:space="preserve">
<path d="M14,14.002H2v-12h5v-2L1.391,0.001C0.623,0.001,0,0.625,0,1.393v13.218c0,0.768,0.623,1.391,1.391,1.391h13.218
	c0.768,0,1.391-0.623,1.391-1.391V9.002h-2V14.002z M16,1c0-0.229-0.095-0.43-0.23-0.598c-0.021-0.027-0.032-0.058-0.056-0.083
	c-0.003-0.002-0.004-0.006-0.006-0.009c-0.006-0.005-0.007-0.013-0.013-0.019c-0.064-0.064-0.143-0.102-0.218-0.145
	c-0.033-0.019-0.06-0.047-0.095-0.062c-0.136-0.059-0.28-0.084-0.426-0.08c-0.002,0-0.004-0.001-0.006-0.001h-4.891
	C9.481,0.002,9.012,0.449,9.012,1c0,0.55,0.47,0.997,1.049,0.997h2.519L6.29,8.299c-0.388,0.387-0.388,1.012,0,1.398
	c0.388,0.387,1.016,0.387,1.403,0l6.312-6.305v2.55c0,0.579,0.447,1.048,0.998,1.048C15.554,6.99,16,6.521,16,5.942V1.051
	c0-0.01-0.005-0.018-0.005-0.027C15.995,1.016,16,1.008,16,1z"/>
</svg>
