<?xml version="1.0" encoding="utf-8"?>
<!-- Generator: Adobe Illustrator 16.0.0, SVG Export Plug-In . SVG Version: 6.00 Build 0)  -->
<!DOCTYPE svg PUBLIC "-//W3C//DTD SVG 1.1//EN" "http://www.w3.org/Graphics/SVG/1.1/DTD/svg11.dtd">
<svg version="1.1" id="Layer_1" xmlns="http://www.w3.org/2000/svg" xmlns:xlink="http://www.w3.org/1999/xlink" x="0px" y="0px"
	 width="16px" height="16px" viewBox="0 0 16 16" enable-background="new 0 0 16 16" xml:space="preserve">
<g>
	<g>
		<path d="M8.001,0.5c-5.296,0-8.015,5.514-8.015,5.514s2.052,5.515,8.015,5.515c5.398,0,8.013-5.494,8.013-5.494
			S13.379,0.5,8.001,0.5z M8.013,9.461c-1.937,0-3.336-1.509-3.336-3.447c0-1.939,1.399-3.446,3.336-3.446
			c1.936,0,3.335,1.507,3.335,3.446C11.348,7.952,9.948,9.461,8.013,9.461z M8.013,3.946c-1.106,0.002-2.002,0.96-2.002,2.068
			c0,1.107,0.896,2.068,2.002,2.068s2.001-0.961,2.001-2.068C10.014,4.906,9.119,3.943,8.013,3.946z"/>
	</g>
</g>
</svg>
