<?xml version="1.0" encoding="utf-8"?>
<!-- Generator: Adobe Illustrator 16.0.0, SVG Export Plug-In . SVG Version: 6.00 Build 0)  -->
<!DOCTYPE svg PUBLIC "-//W3C//DTD SVG 1.1//EN" "http://www.w3.org/Graphics/SVG/1.1/DTD/svg11.dtd">
<svg version="1.1" id="Layer_1" xmlns="http://www.w3.org/2000/svg" xmlns:xlink="http://www.w3.org/1999/xlink" x="0px" y="0px"
	 width="16px" height="16px" viewBox="0 0 16 16" enable-background="new 0 0 16 16" xml:space="preserve">
<g>
	<g>
		<path d="M14,2c0,0-4.344-0.001-5-0.001S7.594,0,7,0S2,0,2,0C0.896,0,0,0.895,0,2v10.001c0,1.979,2,2,2,2h12c1.104,0,2-0.896,2-2
			v-8C16,2.896,15.104,2,14,2z M14.001,12.001H2V2c0,0,3.344,0,3.969,0s1.406,2,2,2c0.625,0,6.032,0,6.032,0V12.001z"/>
	</g>
</g>
</svg>
