<?xml version="1.0" encoding="utf-8"?>
<!-- Generator: Adobe Illustrator 16.0.0, SVG Export Plug-In . SVG Version: 6.00 Build 0)  -->
<!DOCTYPE svg PUBLIC "-//W3C//DTD SVG 1.1//EN" "http://www.w3.org/Graphics/SVG/1.1/DTD/svg11.dtd">
<svg version="1.1" id="Layer_1" xmlns="http://www.w3.org/2000/svg" xmlns:xlink="http://www.w3.org/1999/xlink" x="0px" y="0px"
	 width="16px" height="16px" viewBox="0 0 16 16" enable-background="new 0 0 16 16" xml:space="preserve">
<path d="M14.348,6.765c-0.271-0.04-0.562-0.286-0.646-0.547l-0.408-0.988c-0.127-0.243-0.098-0.623,0.068-0.843l0.658-0.878
	c0.166-0.22,0.152-0.568-0.031-0.774L13.266,2.01c-0.205-0.183-0.555-0.196-0.775-0.031l-0.877,0.66
	c-0.221,0.164-0.6,0.195-0.844,0.067L9.783,2.299C9.52,2.216,9.273,1.924,9.236,1.651L9.08,0.565
	C9.041,0.293,8.786,0.047,8.512,0.019C8.512,0.019,8.343,0,8,0S7.488,0.019,7.488,0.019C7.214,0.047,6.958,0.293,6.92,0.565
	L6.764,1.651C6.726,1.924,6.48,2.216,6.217,2.299L5.23,2.706C4.987,2.834,4.608,2.803,4.388,2.639l-0.879-0.66
	C3.29,1.813,2.94,1.827,2.734,2.01L2.012,2.733C1.83,2.939,1.816,3.288,1.981,3.508L2.64,4.386c0.165,0.22,0.195,0.6,0.067,0.843
	L2.3,6.218C2.216,6.479,1.925,6.725,1.653,6.765L0.567,6.918C0.294,6.958,0.048,7.213,0.02,7.487c0,0-0.018,0.17-0.018,0.513
	c0,0.343,0.018,0.514,0.018,0.514c0.029,0.273,0.275,0.528,0.547,0.567l1.086,0.154C1.925,9.274,2.216,9.521,2.3,9.782l0.408,0.988
	c0.128,0.244,0.098,0.622-0.067,0.842l-0.659,0.879c-0.165,0.221-0.205,0.52-0.088,0.664c0.116,0.144,0.451,0.501,0.452,0.501
	c0,0.002,0.113,0.105,0.25,0.229c0.137,0.126,0.695,0.3,0.915,0.135l0.879-0.658c0.22-0.166,0.599-0.196,0.842-0.068L6.217,13.7
	c0.263,0.085,0.509,0.375,0.547,0.648l0.156,1.086c0.038,0.271,0.294,0.52,0.567,0.548c0,0,0.17,0.018,0.513,0.018
	s0.512-0.018,0.512-0.018c0.273-0.028,0.529-0.276,0.568-0.548l0.156-1.086c0.037-0.273,0.283-0.563,0.547-0.648l0.986-0.406
	c0.244-0.128,0.623-0.098,0.844,0.066l0.879,0.66c0.221,0.165,0.568,0.151,0.775-0.03l0.723-0.724
	c0.182-0.206,0.195-0.555,0.029-0.775l-0.658-0.879c-0.166-0.22-0.195-0.598-0.068-0.842l0.408-0.988
	c0.084-0.262,0.375-0.508,0.646-0.547l1.086-0.154c0.271-0.039,0.518-0.294,0.547-0.567c0,0,0.018-0.17,0.018-0.514
	c0-0.343-0.018-0.513-0.018-0.513c-0.029-0.274-0.275-0.529-0.547-0.569L14.348,6.765z M8,10c-1.104,0-2-0.896-2-2
	c0-1.105,0.896-2,2-2c1.103,0,2,0.896,2,2C10,9.104,9.104,10,8,10z"/>
</svg>
