<?xml version="1.0" encoding="utf-8"?>
<!-- Generator: Adobe Illustrator 16.0.0, SVG Export Plug-In . SVG Version: 6.00 Build 0)  -->
<!DOCTYPE svg PUBLIC "-//W3C//DTD SVG 1.1//EN" "http://www.w3.org/Graphics/SVG/1.1/DTD/svg11.dtd">
<svg version="1.1" id="Layer_1" xmlns="http://www.w3.org/2000/svg" xmlns:xlink="http://www.w3.org/1999/xlink" x="0px" y="0px"
	 width="16px" height="16px" viewBox="0 0 16 16" enable-background="new 0 0 16 16" xml:space="preserve">
<path d="M16,14.582C16,15.366,15.35,16,14.545,16H9.994v-5.495c0-0.829-0.594-1.502-1.329-1.502H7.335
	c-0.734,0-1.33,0.673-1.33,1.502V16H1.454C0.651,16,0,15.366,0,14.582V7.098c0-0.365,0.146-0.695,0.378-0.946L0.363,6.123
	l6.655-5.828c0.536-0.393,1.406-0.393,1.942,0l6.676,5.828L15.629,6.16C15.857,6.411,16,6.737,16,7.098V14.582z"/>
</svg>
