<?xml version="1.0" encoding="utf-8"?>
<!-- Generator: Adobe Illustrator 16.0.0, SVG Export Plug-In . SVG Version: 6.00 Build 0)  -->
<!DOCTYPE svg PUBLIC "-//W3C//DTD SVG 1.1//EN" "http://www.w3.org/Graphics/SVG/1.1/DTD/svg11.dtd">
<svg version="1.1" id="Layer_1" xmlns="http://www.w3.org/2000/svg" xmlns:xlink="http://www.w3.org/1999/xlink" x="0px" y="0px"
	 width="16px" height="16px" viewBox="-7.5 8.5 16 16" enable-background="new -7.5 8.5 16 16" xml:space="preserve">
<path fill="#231F20" d="M7.168,21.5H-6.166c-0.737,0-1.334-0.582-1.334-1.301V9.801C-7.5,9.082-6.903,8.5-6.166,8.5H7.168
	c0.736,0,1.333,0.582,1.333,1.301v10.398C8.501,20.918,7.904,21.5,7.168,21.5z M6.501,10.5H-5.5v7.997c0,0,1-1.001,2-2.001
	c1-1.001,2,0,2,0l1,1c0,0,1.855-1.887,3-3.002c1.045-1.046,2,0,2,0l2,2.002L6.501,10.5z M-2.5,14.5c-0.552,0-1-0.448-1-0.999
	c0-0.553,0.448-1.001,1-1.001s1,0.448,1,1.001C-1.5,14.052-1.948,14.5-2.5,14.5z"/>
</svg>
