<?xml version="1.0" encoding="utf-8"?>
<!-- Generator: Adobe Illustrator 16.0.0, SVG Export Plug-In . SVG Version: 6.00 Build 0)  -->
<!DOCTYPE svg PUBLIC "-//W3C//DTD SVG 1.1//EN" "http://www.w3.org/Graphics/SVG/1.1/DTD/svg11.dtd">
<svg version="1.1" id="Layer_1" xmlns="http://www.w3.org/2000/svg" xmlns:xlink="http://www.w3.org/1999/xlink" x="0px" y="0px"
	 width="16px" height="16px" viewBox="0 0 16 16" enable-background="new 0 0 16 16" xml:space="preserve">
<g>
	<g>
		<path d="M8,0C3.582,0,0,3.582,0,8c0,4.417,3.582,8,8,8c4.419,0,8-3.582,8-8C16,3.582,12.419,0,8,0z M9.012,11.951
			c0,0.579-0.453,1.048-1.012,1.048s-1.012-0.469-1.012-1.048V7.059C6.988,6.48,7.441,6.011,8,6.011S9.012,6.48,9.012,7.059V11.951z
			 M8,4.995c-0.559,0-1.012-0.447-1.012-0.998S7.441,3.001,8,3.001s1.012,0.446,1.012,0.997S8.559,4.995,8,4.995z"/>
	</g>
</g>
</svg>
