<?xml version="1.0" encoding="utf-8"?>
<!-- Generator: Adobe Illustrator 16.0.0, SVG Export Plug-In . SVG Version: 6.00 Build 0)  -->
<!DOCTYPE svg PUBLIC "-//W3C//DTD SVG 1.0//EN" "http://www.w3.org/TR/2001/REC-SVG-20010904/DTD/svg10.dtd">
<svg version="1.0" id="Layer_1" xmlns="http://www.w3.org/2000/svg" xmlns:xlink="http://www.w3.org/1999/xlink" x="0px" y="0px"
	 width="16px" height="16px" viewBox="0.5 16.5 16 16" enable-background="new 0.5 16.5 16 16" xml:space="preserve">
<g>
	<g>
		<path fill="#231F20" d="M15.182,17.818C14.331,16.968,13.201,16.5,12,16.5c-1.202,0-2.332,0.468-3.182,1.318
			c0,0-2.839,2.838-3.002,2.999c-0.847,0.849-1.314,1.98-1.316,3.189c0.002,1.2,0.47,2.328,1.318,3.176l0.365,0.366
			c0.098,0.098,0.227,0.146,0.354,0.146c0.128,0,0.256-0.049,0.354-0.146l0.707-0.707c0.195-0.195,0.195-0.512,0-0.707l-0.366-0.366
			c-0.959-0.959-0.972-2.532-0.028-3.508c0.029-0.029,3.029-3.028,3.029-3.028C10.705,18.76,11.332,18.5,12,18.5
			s1.295,0.26,1.768,0.731v0.001c0.977,0.978,0.977,2.559,0,3.535l-0.154,0.154C13.855,23.571,13.999,24.268,14,25
			c0,0.133-0.019,0.261-0.026,0.391l1.208-1.209C16.939,22.424,16.938,19.574,15.182,17.818z M10.815,21.451
			c-0.097-0.098-0.226-0.146-0.353-0.146c-0.129,0-0.257,0.049-0.354,0.146l-0.707,0.707c-0.196,0.195-0.196,0.512,0,0.707
			l0.365,0.366c0.959,0.959,0.973,2.532,0.029,3.508c-0.029,0.029-3.029,3.028-3.029,3.028C6.295,30.24,5.668,30.5,4.999,30.5
			c-0.667,0-1.294-0.26-1.767-0.731v-0.001c-0.977-0.978-0.977-2.559-0.001-3.535l0.155-0.154C3.144,25.429,3,24.732,3,24
			c0-0.133,0.018-0.261,0.026-0.391l-1.208,1.209c-1.758,1.758-1.757,4.607,0,6.363C2.669,32.032,3.799,32.5,5,32.5
			s2.331-0.468,3.182-1.318c0,0,2.839-2.838,3.002-2.999c0.847-0.849,1.314-1.98,1.316-3.189c-0.002-1.2-0.471-2.328-1.318-3.176
			L10.815,21.451z"/>
	</g>
</g>
</svg>
