<?xml version="1.0" encoding="utf-8"?>
<!-- Generator: Adobe Illustrator 16.0.0, SVG Export Plug-In . SVG Version: 6.00 Build 0)  -->
<!DOCTYPE svg PUBLIC "-//W3C//DTD SVG 1.1//EN" "http://www.w3.org/Graphics/SVG/1.1/DTD/svg11.dtd">
<svg version="1.1" id="Layer_1" xmlns="http://www.w3.org/2000/svg" xmlns:xlink="http://www.w3.org/1999/xlink" x="0px" y="0px"
	 width="16px" height="16px" viewBox="0 0 16 16" enable-background="new 0 0 16 16" xml:space="preserve">
<g>
	<g>
		<path d="M15.499,0.01H0.501c-0.275,0-0.5,0.24-0.5,0.534v1.948c0,0.282,0.225,0.513,0.5,0.513h14.998c0.275,0,0.5-0.23,0.5-0.513
			V0.544C15.999,0.25,15.774,0.01,15.499,0.01z M15.499,5.01H0.501c-0.275,0-0.5,0.24-0.5,0.535v1.947
			c0,0.283,0.225,0.513,0.5,0.513h14.998c0.275,0,0.5-0.23,0.5-0.513V5.544C15.999,5.25,15.774,5.01,15.499,5.01z M15.499,10.01
			H0.501c-0.275,0-0.5,0.24-0.5,0.535v1.947c0,0.281,0.225,0.512,0.5,0.512h14.998c0.275,0,0.5-0.23,0.5-0.512v-1.947
			C15.999,10.25,15.774,10.01,15.499,10.01z"/>
	</g>
</g>
</svg>
