<?xml version="1.0" encoding="utf-8"?>
<!-- Generator: Adobe Illustrator 16.0.0, SVG Export Plug-In . SVG Version: 6.00 Build 0)  -->
<!DOCTYPE svg PUBLIC "-//W3C//DTD SVG 1.1//EN" "http://www.w3.org/Graphics/SVG/1.1/DTD/svg11.dtd">
<svg version="1.1" id="Layer_1" xmlns="http://www.w3.org/2000/svg" xmlns:xlink="http://www.w3.org/1999/xlink" x="0px" y="0px"
	 width="16px" height="16px" viewBox="0 0 16 16" enable-background="new 0 0 16 16" xml:space="preserve">
<path d="M6.002,8.249c-1.373,0-2.486-1.152-2.486-2.575c0-1.424,1.113-2.576,2.486-2.576S8.488,4.25,8.488,5.674
	C8.488,7.096,7.375,8.249,6.002,8.249 M6.002-0.006c-3.039,0-5.502,2.552-5.502,5.7c0,2.973,2.492,6.809,4.156,8.676
	c0.622,0.696,1.346,1.636,1.346,1.636s0.778-0.943,1.445-1.661c1.662-1.789,4.057-5.382,4.057-8.65
	C11.504,2.546,9.041-0.006,6.002-0.006"/>
</svg>
