<?xml version="1.0" encoding="utf-8"?>
<!-- Generator: Adobe Illustrator 16.0.0, SVG Export Plug-In . SVG Version: 6.00 Build 0)  -->
<!DOCTYPE svg PUBLIC "-//W3C//DTD SVG 1.1//EN" "http://www.w3.org/Graphics/SVG/1.1/DTD/svg11.dtd">
<svg version="1.1" id="Layer_1" xmlns="http://www.w3.org/2000/svg" xmlns:xlink="http://www.w3.org/1999/xlink" x="0px" y="0px"
	 width="16px" height="16px" viewBox="0 0 16 16" enable-background="new 0 0 16 16" xml:space="preserve">
<path d="M13,16H1c-0.552,0-1-0.447-1-1.001V8c0-0.552,0.448-1,1-1h1V5c0-2.761,2.238-5,5-5s5,2.239,5,5v2h1c0.553,0,1,0.448,1,1
	v6.999C14,15.553,13.553,16,13,16z M10,5c0-1.656-1.343-3-3-3S4,3.344,4,5v2h6V5z"/>
</svg>
