<?xml version="1.0" encoding="utf-8"?>
<!-- Generator: Adobe Illustrator 16.0.0, SVG Export Plug-In . SVG Version: 6.00 Build 0)  -->
<!DOCTYPE svg PUBLIC "-//W3C//DTD SVG 1.1//EN" "http://www.w3.org/Graphics/SVG/1.1/DTD/svg11.dtd">
<svg version="1.1" id="Layer_1" xmlns="http://www.w3.org/2000/svg" xmlns:xlink="http://www.w3.org/1999/xlink" x="0px" y="0px"
	 width="16px" height="16px" viewBox="0 0 16 16" enable-background="new 0 0 16 16" xml:space="preserve">
<path d="M12,8.001c-1.9,0-3.092-1.074-4-2.257C7.092,6.927,5.9,8.001,4,8.001C2.393,8.001,0,6.935,0,4c0-2.934,2.393-4,4-4
	c1.9,0,3.092,1.073,4,2.257C8.908,1.073,10.1,0,12,0c1.608,0,4,1.066,4,4C16,6.935,13.608,8.001,12,8.001z M4,2
	C3.537,2.008,2,2.174,2,4c0,1.904,1.666,2,2,2c1.223,0,1.926-0.747,2.793-2C5.926,2.748,5.223,2,4,2z M9.207,4
	c0.866,1.252,1.568,1.998,2.788,2C12.469,5.993,14,5.824,14,4c0-1.904-1.666-2-2-2C10.777,2,10.074,2.748,9.207,4z"/>
</svg>
