<?xml version="1.0" encoding="utf-8"?>
<!-- Generator: Adobe Illustrator 16.0.0, SVG Export Plug-In . SVG Version: 6.00 Build 0)  -->
<!DOCTYPE svg PUBLIC "-//W3C//DTD SVG 1.1//EN" "http://www.w3.org/Graphics/SVG/1.1/DTD/svg11.dtd">
<svg version="1.1" id="Layer_1" xmlns="http://www.w3.org/2000/svg" xmlns:xlink="http://www.w3.org/1999/xlink" x="0px" y="0px"
	 width="16px" height="16px" viewBox="0 0 16 16" enable-background="new 0 0 16 16" xml:space="preserve">
<g>
	<g>
		<path d="M14,0C13.211,0,2,0,2,0C1.211,0,0,0.643,0,1.421v0.283c0,0,6.762,5.654,8,5.654s8-5.636,8-5.636v-0.3
			C16,0.643,14.789,0,14,0z M0,3.985v8.014C0,11.999,0,13,2,13h12c2.003,0,2-1.001,2-1.001V3.96c0,0-5.69,5.078-8,5.078
			C5.714,9.038,0,3.985,0,3.985z"/>
	</g>
</g>
</svg>
