<?xml version="1.0" encoding="utf-8"?>
<!-- Generator: Adobe Illustrator 16.0.0, SVG Export Plug-In . SVG Version: 6.00 Build 0)  -->
<!DOCTYPE svg PUBLIC "-//W3C//DTD SVG 1.1//EN" "http://www.w3.org/Graphics/SVG/1.1/DTD/svg11.dtd">
<svg version="1.1" id="Layer_1" xmlns="http://www.w3.org/2000/svg" xmlns:xlink="http://www.w3.org/1999/xlink" x="0px" y="0px"
	 width="16px" height="16px" viewBox="0 0 16 16" enable-background="new 0 0 16 16" xml:space="preserve">
<path d="M10.531,8.65c-0.448-0.276-1.022-0.113-1.28,0.365C9.242,9.031,9.242,9.05,9.233,9.066L9.21,9.051
	C8.554,10.214,7.371,11,6.004,11s-2.549-0.786-3.206-1.949L2.776,9.064C2.765,9.039,2.765,9.01,2.751,8.984
	C2.492,8.507,1.918,8.343,1.469,8.619S0.867,9.507,1.126,9.984c0.02,0.035,0.051,0.057,0.073,0.089l-0.017,0.011
	c0.83,1.472,2.236,2.525,3.884,2.822V14H3.19c-0.518,0-0.938,0.448-0.938,1c0,0.553,0.42,1,0.938,1h5.627
	c0.519,0,0.938-0.447,0.938-1c0-0.552-0.419-1-0.938-1H6.942v-1.093c1.648-0.297,3.054-1.352,3.884-2.823L10.82,10.08
	c0.017-0.023,0.041-0.038,0.054-0.064C11.134,9.537,10.98,8.926,10.531,8.65z M6.004,10c1.554,0,2.813-1.343,2.813-3V3
	c0-1.657-1.26-3-2.813-3C4.45,0,3.19,1.343,3.19,3v4C3.19,8.657,4.45,10,6.004,10z"/>
</svg>
