<?xml version="1.0" encoding="utf-8"?>
<!-- Generator: Adobe Illustrator 16.0.0, SVG Export Plug-In . SVG Version: 6.00 Build 0)  -->
<!DOCTYPE svg PUBLIC "-//W3C//DTD SVG 1.1//EN" "http://www.w3.org/Graphics/SVG/1.1/DTD/svg11.dtd">
<svg version="1.1" id="Layer_1" xmlns="http://www.w3.org/2000/svg" xmlns:xlink="http://www.w3.org/1999/xlink" x="0px" y="0px"
	 width="16px" height="16px" viewBox="0 0 16 16" enable-background="new 0 0 16 16" xml:space="preserve">
<path d="M15.008,3.902c-0.34-0.562-0.759-1.112-1.271-1.622c-0.519-0.514-1.078-0.937-1.65-1.275L13.092,0c0,0,1.454,0,2.182,0.727
	C16,1.455,16,2.909,16,2.909L15.008,3.902z M6.05,12.988H3.012V9.95l0.365-0.365c0.618,0.29,1.231,0.702,1.784,1.255
	c0.553,0.552,0.964,1.167,1.255,1.784L6.05,12.988z M14.168,4.742l-6.875,7.005c-0.355-0.588-0.792-1.161-1.328-1.693
	C5.423,9.516,4.839,9.074,4.241,8.721l7.018-6.889c0.591,0.279,1.179,0.671,1.708,1.201S13.889,4.149,14.168,4.742z M2,2v11.999h12
	V9l2-1.999v7.545C16,15.349,15.35,16,14.546,16H1.454C0.651,16,0,15.349,0,14.546V1.455C0,0.651,0.651,0,1.454,0H9L7,2H2z"/>
</svg>
