<?xml version="1.0" encoding="utf-8"?>
<!-- Generator: Adobe Illustrator 16.0.0, SVG Export Plug-In . SVG Version: 6.00 Build 0)  -->
<!DOCTYPE svg PUBLIC "-//W3C//DTD SVG 1.0//EN" "http://www.w3.org/TR/2001/REC-SVG-20010904/DTD/svg10.dtd">
<svg version="1.0" id="Layer_1" xmlns="http://www.w3.org/2000/svg" xmlns:xlink="http://www.w3.org/1999/xlink" x="0px" y="0px"
	 width="16px" height="16px" viewBox="0.5 16.5 16 16" enable-background="new 0.5 16.5 16 16" xml:space="preserve">
<g>
	<g>
		<path fill-rule="evenodd" clip-rule="evenodd" fill="#231F20" d="M4.5,16.5h-3c-0.552,0-1,0.447-1,1v14c0,0.553,0.448,1,1,1h3
			c0.552,0,1-0.447,1-1v-14C5.5,16.947,5.052,16.5,4.5,16.5z M14.5,16.5h-3c-0.553,0-1,0.447-1,1v14c0,0.553,0.447,1,1,1h3
			c0.553,0,1-0.447,1-1v-14C15.5,16.947,15.053,16.5,14.5,16.5z"/>
	</g>
</g>
</svg>
