<?xml version="1.0" encoding="utf-8"?>
<!-- Generator: Adobe Illustrator 16.0.0, SVG Export Plug-In . SVG Version: 6.00 Build 0)  -->
<!DOCTYPE svg PUBLIC "-//W3C//DTD SVG 1.1//EN" "http://www.w3.org/Graphics/SVG/1.1/DTD/svg11.dtd">
<svg version="1.1" id="Layer_1" xmlns="http://www.w3.org/2000/svg" xmlns:xlink="http://www.w3.org/1999/xlink" x="0px" y="0px"
	 width="16px" height="16px" viewBox="0 0 16 16" enable-background="new 0 0 16 16" xml:space="preserve">
<g>
	<g>
		<path d="M14.016,2h-2.31l-0.67-1.416C10.883,0.251,10.332,0,9.796,0H5.971C5.435,0,4.884,0.251,4.73,0.584L4.076,2H2C0,2,0,3,0,3
			v10c0,0,0,1,2,1h12c2,0,2-1,2-1V3C16,3,16,2,14.016,2z M8,11.999c-2.209,0-4-1.789-4-3.998C4,5.791,5.791,4,8,4s4,1.791,4,4.001
			C12,10.21,10.209,11.999,8,11.999z M8,5.5C6.619,5.5,5.5,6.619,5.5,8c0,1.38,1.119,2.5,2.5,2.5s2.5-1.12,2.5-2.5
			C10.5,6.619,9.381,5.5,8,5.5z"/>
	</g>
</g>
</svg>
