<?xml version="1.0" encoding="utf-8"?>
<!-- Generator: Adobe Illustrator 16.0.0, SVG Export Plug-In . SVG Version: 6.00 Build 0)  -->
<!DOCTYPE svg PUBLIC "-//W3C//DTD SVG 1.1//EN" "http://www.w3.org/Graphics/SVG/1.1/DTD/svg11.dtd">
<svg version="1.1" id="Layer_1" xmlns="http://www.w3.org/2000/svg" xmlns:xlink="http://www.w3.org/1999/xlink" x="0px" y="0px"
	 width="16px" height="16px" viewBox="0 0 16 16" enable-background="new 0 0 16 16" xml:space="preserve">
<path d="M8-0.001C3.582-0.001,0,3.582,0,8c0,4.419,3.582,8.001,8,8.001S16,12.419,16,8C16,3.582,12.418-0.001,8-0.001z
	 M11.941,9.011H9.013v2.93c0,0.578-0.453,1.048-1.012,1.048s-1.012-0.47-1.012-1.048v-2.93h-2.94C3.471,9.011,3.001,8.559,3.001,8
	s0.47-1.012,1.048-1.012h2.94v-2.94C6.989,3.469,7.442,3,8.001,3s1.012,0.469,1.012,1.048v2.94h2.929
	c0.579,0,1.048,0.454,1.048,1.012S12.521,9.011,11.941,9.011z"/>
</svg>
