<?xml version="1.0" encoding="utf-8"?>
<!-- Generator: Adobe Illustrator 16.0.0, SVG Export Plug-In . SVG Version: 6.00 Build 0)  -->
<!DOCTYPE svg PUBLIC "-//W3C//DTD SVG 1.1//EN" "http://www.w3.org/Graphics/SVG/1.1/DTD/svg11.dtd">
<svg version="1.1" id="Layer_1" xmlns="http://www.w3.org/2000/svg" xmlns:xlink="http://www.w3.org/1999/xlink" x="0px" y="0px"
	 width="16px" height="16px" viewBox="0 0 16 16" enable-background="new 0 0 16 16" xml:space="preserve">
<path d="M14,9.001H9V14c0,0.553-0.447,1-1,1H7c-0.552,0-1-0.447-1-1V9.001H1C0.448,9.001,0,8.552,0,8V6.999
	c0-0.552,0.448-0.998,1-0.998h5V1c0-0.552,0.448-1,1-1h1c0.553,0,1,0.448,1,1v5.001h5c0.553,0,1,0.446,1,0.998V8
	C15,8.552,14.553,9.001,14,9.001z"/>
</svg>
