<?xml version="1.0" encoding="utf-8"?>
<!-- Generator: Adobe Illustrator 16.0.0, SVG Export Plug-In . SVG Version: 6.00 Build 0)  -->
<!DOCTYPE svg PUBLIC "-//W3C//DTD SVG 1.1//EN" "http://www.w3.org/Graphics/SVG/1.1/DTD/svg11.dtd">
<svg version="1.1" id="Layer_1" xmlns="http://www.w3.org/2000/svg" xmlns:xlink="http://www.w3.org/1999/xlink" x="0px" y="0px"
	 width="16px" height="16px" viewBox="0 0 16 16" enable-background="new 0 0 16 16" xml:space="preserve">
<g>
	<g>
		<path d="M10.998,2.203l-0.002,0.001c-0.014-0.01-0.025-0.024-0.041-0.035c-0.456-0.313-1.078-0.197-1.391,0.261
			c-0.312,0.458-0.195,1.083,0.26,1.396C9.836,3.836,9.848,3.84,9.859,3.846L9.855,3.853C11.15,4.76,12,6.267,12,7.974
			c0,2.774-2.239,5.023-5,5.023s-5-2.249-5-5.023C2,6.267,2.85,4.76,4.145,3.853L4.141,3.846c0.011-0.006,0.023-0.01,0.035-0.019
			c0.456-0.313,0.572-0.938,0.26-1.396C4.123,1.973,3.501,1.856,3.045,2.17C3.03,2.181,3.018,2.194,3.003,2.205L3.002,2.203
			C1.189,3.475,0,5.583,0,7.974c0,3.884,3.134,7.034,7,7.034s7-3.15,7-7.034C14,5.583,12.811,3.475,10.998,2.203z M7,9
			c0.553,0,1-0.447,1-1V1.001C8,0.448,7.553,0,7,0C6.448,0,6,0.448,6,1.001V8C6,8.553,6.448,9,7,9z"/>
	</g>
</g>
</svg>
