<?xml version="1.0" encoding="utf-8"?>
<!-- Generator: Adobe Illustrator 16.0.0, SVG Export Plug-In . SVG Version: 6.00 Build 0)  -->
<!DOCTYPE svg PUBLIC "-//W3C//DTD SVG 1.1//EN" "http://www.w3.org/Graphics/SVG/1.1/DTD/svg11.dtd">
<svg version="1.1" id="Layer_1" xmlns="http://www.w3.org/2000/svg" xmlns:xlink="http://www.w3.org/1999/xlink" x="0px" y="0px"
	 width="16px" height="16px" viewBox="0 0 16 16" enable-background="new 0 0 16 16" xml:space="preserve">
<path d="M8,16c-4.418,0-8-3.582-8-8c0-4.417,3.582-8,8-8c4.418,0,8,3.582,8,8C16,12.418,12.418,16,8,16z M8,12.999
	c0.559,0,1.012-0.446,1.012-0.997c0-0.55-0.453-0.997-1.012-0.997c-0.559,0-1.012,0.447-1.012,0.997
	C6.988,12.553,7.441,12.999,8,12.999z M10.168,3.683C9.638,3.247,8.883,3.004,7.98,3.004c-0.665,0-1.233,0.12-1.721,0.315
	C6,3.424,5.171,3.939,4.999,4.083l0.506,0.755c0.083,0.146,0.218,0.22,0.405,0.22c0.078,0,0.166-0.031,0.265-0.092
	c0.072-0.045,0.642-0.339,0.883-0.412c0.505-0.15,1.06-0.089,1.315-0.01c0.348,0.107,0.6,0.311,0.74,0.59
	c0.092,0.184,0.209,0.69-0.066,1.163C8.818,6.689,8.46,6.987,8.065,7.251C7.854,7.395,7.658,7.542,7.481,7.695
	c-0.008,0-0.028,0.015-0.073,0.055C7.43,7.731,7.459,7.714,7.481,7.695C7.531,7.693,7,8.372,7,9c0,0.67,0,1,0,1h2V9
	c0-0.52,0.252-0.812,0.257-0.886c0.172-0.123,0.954-0.721,1.14-0.936C10.744,6.778,11,6.25,11,5.506
	C11,4.743,10.697,4.118,10.168,3.683z"/>
</svg>
