<?xml version="1.0" encoding="utf-8"?>
<!-- Generator: Adobe Illustrator 16.0.0, SVG Export Plug-In . SVG Version: 6.00 Build 0)  -->
<!DOCTYPE svg PUBLIC "-//W3C//DTD SVG 1.1//EN" "http://www.w3.org/Graphics/SVG/1.1/DTD/svg11.dtd">
<svg version="1.1" id="Layer_1" xmlns="http://www.w3.org/2000/svg" xmlns:xlink="http://www.w3.org/1999/xlink" x="0px" y="0px"
	 width="16px" height="16px" viewBox="0 0 16 16" enable-background="new 0 0 16 16" xml:space="preserve">
<path d="M11.303,9.475c-0.177-0.179-0.236-0.511-0.131-0.739c0,0,0.738-1.601,0.738-2.777C11.91,2.668,9.247,0,5.961,0
	s-5.95,2.668-5.95,5.958c0,3.291,2.664,5.959,5.95,5.959c1.175,0,2.772-0.74,2.772-0.74c0.229-0.106,0.562-0.046,0.738,0.132
	l4.554,4.559c0.179,0.178,0.47,0.178,0.646,0l1.184-1.186c0.179-0.179,0.179-0.471,0-0.648L11.303,9.475z M5.961,9.166
	c-1.767,0-3.204-1.438-3.204-3.208c0-1.769,1.438-3.208,3.204-3.208s3.203,1.439,3.203,3.208C9.164,7.728,7.728,9.166,5.961,9.166z"
	/>
</svg>
