<?xml version="1.0" encoding="utf-8"?>
<!-- Generator: Adobe Illustrator 16.0.0, SVG Export Plug-In . SVG Version: 6.00 Build 0)  -->
<!DOCTYPE svg PUBLIC "-//W3C//DTD SVG 1.0//EN" "http://www.w3.org/TR/2001/REC-SVG-20010904/DTD/svg10.dtd">
<svg version="1.0" id="Layer_1" xmlns="http://www.w3.org/2000/svg" xmlns:xlink="http://www.w3.org/1999/xlink" x="0px" y="0px"
	 width="16px" height="16px" viewBox="0.5 16.5 16 16" enable-background="new 0.5 16.5 16 16" xml:space="preserve">
<g>
	<g>
		<path fill-rule="evenodd" clip-rule="evenodd" fill="#231F20" d="M16.324,22.435l-3.769-5.5c-0.187-0.272-0.495-0.435-0.825-0.435
			H1.5c-0.553,0-1,0.448-1,1v11c0,0.552,0.447,1,1,1h10.23c0.33,0,0.639-0.162,0.825-0.435l3.769-5.5
			C16.559,23.225,16.559,22.775,16.324,22.435z M12,24.5c-0.828,0-1.5-0.672-1.5-1.5s0.672-1.5,1.5-1.5s1.5,0.672,1.5,1.5
			S12.828,24.5,12,24.5z"/>
	</g>
</g>
</svg>
