<?xml version="1.0" encoding="utf-8"?>
<!-- Generator: Adobe Illustrator 16.0.0, SVG Export Plug-In . SVG Version: 6.00 Build 0)  -->
<!DOCTYPE svg PUBLIC "-//W3C//DTD SVG 1.1//EN" "http://www.w3.org/Graphics/SVG/1.1/DTD/svg11.dtd">
<svg version="1.1" id="Layer_1" xmlns="http://www.w3.org/2000/svg" xmlns:xlink="http://www.w3.org/1999/xlink" x="0px" y="0px"
	 width="16px" height="16px" viewBox="0 0 16 16" enable-background="new 0 0 16 16" xml:space="preserve">
<g>
	<g>
		<path d="M8.001,0C3.584,0,0.003,3.581,0.003,7.999c0,4.419,3.581,7.999,7.998,7.999c4.418,0,7.999-3.58,7.999-7.999
			C16,3.581,12.419,0,8.001,0z M10.609,10.805l-0.232,0.234c-0.194,0.193-0.521,0.203-0.726,0.02L6.971,8.754
			C6.766,8.571,6.611,8.196,6.624,7.922l0.279-4.423C6.917,3.224,7.153,3,7.429,3h0.329c0.275,0,0.511,0.224,0.524,0.499
			l0.229,3.622c0.014,0.274,0.175,0.667,0.357,0.872l1.762,2.087C10.812,10.283,10.804,10.611,10.609,10.805z"/>
	</g>
</g>
</svg>
