<?xml version="1.0" encoding="utf-8"?>
<!-- Generator: Adobe Illustrator 16.0.0, SVG Export Plug-In . SVG Version: 6.00 Build 0)  -->
<!DOCTYPE svg PUBLIC "-//W3C//DTD SVG 1.1//EN" "http://www.w3.org/Graphics/SVG/1.1/DTD/svg11.dtd">
<svg version="1.1" id="Layer_1" xmlns="http://www.w3.org/2000/svg" xmlns:xlink="http://www.w3.org/1999/xlink" x="0px" y="0px"
	 width="16px" height="16px" viewBox="0 0 16 16" enable-background="new 0 0 16 16" xml:space="preserve">
<path d="M14,4h-1v10c0,0-0.031,2-2,2c0,0-4.969,0-7,0s-2-2-2-2V4H1C0.448,4,0,3.552,0,3s0.448-1,1-1h4h1V1.5C6,0.671,6.671,0,7.5,0
	C8.328,0,9,0.671,9,1.5V2h1h4c0.553,0,1,0.447,1,1S14.553,4,14,4z M11,4H4v10h7V4z M6,5C6.552,5,7,5.448,7,6v6c0,0.553-0.448,1-1,1
	s-1-0.447-1-1V6C5,5.448,5.448,5,6,5z M9,5C9.553,5,10,5.448,10,6v6c0,0.553-0.447,1-1,1s-1-0.447-1-1V6C8,5.448,8.447,5,9,5z"/>
</svg>
