<?xml version="1.0" encoding="utf-8"?>
<!-- Generator: Adobe Illustrator 16.0.0, SVG Export Plug-In . SVG Version: 6.00 Build 0)  -->
<!DOCTYPE svg PUBLIC "-//W3C//DTD SVG 1.1//EN" "http://www.w3.org/Graphics/SVG/1.1/DTD/svg11.dtd">
<svg version="1.1" id="Layer_1" xmlns="http://www.w3.org/2000/svg" xmlns:xlink="http://www.w3.org/1999/xlink" x="0px" y="0px"
	 width="16px" height="16px" viewBox="0 0 16 16" enable-background="new 0 0 16 16" xml:space="preserve">
<path d="M14,16h-3v-2h3.001V4H2v10h3v2H2c-1.104,0-2-0.896-2-2V2c0-1.104,0.896-2,2-2h12c1.104,0,2,0.896,2,2v12
	C16,15.104,15.104,16,14,16z M3,1.001C2.447,1.001,2,1.448,2,2c0,0.553,0.447,1,1,1s1-0.447,1-1C4,1.448,3.553,1.001,3,1.001z
	 M6,1.001C5.447,1.001,5,1.448,5,2c0,0.553,0.447,1,1,1s1-0.447,1-1C7,1.448,6.553,1.001,6,1.001z M4.249,11.864
	c-0.347-0.363-0.347-0.951,0-1.315l3.077-3.272c0.096-0.101,0.21-0.164,0.33-0.21c0.001-0.001,0.003-0.001,0.005-0.002
	c0.092-0.035,0.185-0.054,0.281-0.058c0.035-0.003,0.069-0.006,0.104-0.004C8.089,7.006,8.13,7.019,8.171,7.028
	c0.177,0.035,0.348,0.105,0.484,0.248l3.076,3.272c0.348,0.364,0.348,0.952,0,1.315c-0.348,0.361-0.911,0.361-1.259,0L9,10v4.999
	C9,15.533,8.499,16,7.99,16C7.482,16,7,15.533,7,14.999V10l-1.492,1.864C5.16,12.226,4.597,12.226,4.249,11.864z"/>
</svg>
