<?xml version="1.0" encoding="utf-8"?>
<!-- Generator: Adobe Illustrator 16.0.0, SVG Export Plug-In . SVG Version: 6.00 Build 0)  -->
<!DOCTYPE svg PUBLIC "-//W3C//DTD SVG 1.1//EN" "http://www.w3.org/Graphics/SVG/1.1/DTD/svg11.dtd">
<svg version="1.1" id="Layer_1" xmlns="http://www.w3.org/2000/svg" xmlns:xlink="http://www.w3.org/1999/xlink" x="0px" y="0px"
	 width="16px" height="16px" viewBox="0 0 16 16" enable-background="new 0 0 16 16" xml:space="preserve">
<g>
	<g>
		<path d="M7.016,5.683c1.665,0,3.016-1.271,3.016-2.842C10.031,1.272,8.681,0,7.016,0S4,1.272,4,2.841
			C4,4.411,5.351,5.683,7.016,5.683z M9.38,5.88C8.715,6.34,7.902,6.621,7.016,6.621c-0.89,0-1.705-0.283-2.371-0.746
			C1.938,6.458,0,8.013,0,9.844v4.045c0,0.268,0.225,0.486,0.5,0.486h1c0.275,0,0.5-0.197,0.5-0.439c0-0.14,0-3.154,0-3.154
			c0-0.26,0.149-0.156,0.334-0.156c0.184,0,0.333,0.141,0.333,0.312l0.005,2.812c0.014,0.162,0.15,1.319,0.321,1.353
			c0,0,1.04,0.896,4.007,0.896c2.988,0,4.007-0.896,4.007-0.896c0.171-0.033,0.308-1.19,0.321-1.353l0.005-2.812
			c0-0.172,0.149-0.312,0.334-0.312c0.184,0,0.333,0.141,0.333,0.312c0,0,0,2.858,0,2.998c0,0.242,0.225,0.439,0.5,0.439h1
			c0.275,0,0.5-0.219,0.5-0.486V9.844C14,8.018,12.072,6.467,9.38,5.88z"/>
	</g>
</g>
</svg>
