<?xml version="1.0" encoding="utf-8"?>
<!-- Generator: Adobe Illustrator 16.0.0, SVG Export Plug-In . SVG Version: 6.00 Build 0)  -->
<!DOCTYPE svg PUBLIC "-//W3C//DTD SVG 1.1//EN" "http://www.w3.org/Graphics/SVG/1.1/DTD/svg11.dtd">
<svg version="1.1" id="Layer_1" xmlns="http://www.w3.org/2000/svg" xmlns:xlink="http://www.w3.org/1999/xlink" x="0px" y="0px"
	 width="16px" height="16px" viewBox="0 0 16 16" enable-background="new 0 0 16 16" xml:space="preserve">
<g>
	<g>
		<path d="M7.706,0C6.95,0,6.721,0.435,6.721,0.435S3.86,3.813,2.556,3.813c-1.284,0-1.271,0-1.271,0C0.575,3.813,0,4.382,0,5.083
			v3.814c0,0.702,0.575,1.27,1.284,1.27c0,0,0.021,0,1.284,0c1.266,0,4.212,3.42,4.212,3.42c0.233,0.242,0.561,0.393,0.926,0.393
			c0.709,0,1.284-0.568,1.284-1.27V1.271C8.99,0.569,8.415,0,7.706,0z M13.187,1.223l-0.741,1.109
			c1.354,1.1,2.222,2.777,2.222,4.659s-0.867,3.56-2.222,4.658l0.741,1.109C14.897,11.416,16,9.334,16,6.991
			C16,4.647,14.897,2.566,13.187,1.223z M11.7,3.448l-0.748,1.12c0.646,0.608,1.053,1.465,1.053,2.423
			c0,0.958-0.407,1.814-1.053,2.423l0.748,1.119c0.998-0.855,1.634-2.125,1.634-3.542C13.334,5.572,12.698,4.304,11.7,3.448z"/>
	</g>
</g>
</svg>
