<?xml version="1.0" encoding="utf-8"?>
<!-- Generator: Adobe Illustrator 16.0.0, SVG Export Plug-In . SVG Version: 6.00 Build 0)  -->
<!DOCTYPE svg PUBLIC "-//W3C//DTD SVG 1.1//EN" "http://www.w3.org/Graphics/SVG/1.1/DTD/svg11.dtd">
<svg version="1.1" id="Layer_1" xmlns="http://www.w3.org/2000/svg" xmlns:xlink="http://www.w3.org/1999/xlink" x="0px" y="0px"
	 width="16px" height="16px" viewBox="0 0 16 16" enable-background="new 0 0 16 16" xml:space="preserve">
<path d="M14.668,3.004l-1.667,0V1.338c0-0.736-0.597-1.333-1.333-1.333H1.333c-0.736,0-1.333,0.597-1.333,1.333v10.323
	c0,0.737,0.582,1.334,1.299,1.334h1.701v1.667c0,0.736,0.582,1.333,1.299,1.333h10.403c0.718,0,1.3-0.597,1.3-1.333V4.338
	C16.001,3.602,15.404,3.004,14.668,3.004z M6,1.006c0.552,0,1,0.447,1,0.999c0,0.553-0.448,1-1,1s-1-0.447-1-1
	C5,1.453,5.448,1.006,6,1.006z M3,1.006c0.552,0,1,0.447,1,0.999c0,0.553-0.448,1-1,1s-1-0.447-1-1C2,1.453,2.448,1.006,3,1.006z
	 M2,11.005l-0.001-7H11v7H2z M14,14.005H5v-1.01h6.701c0.718,0,1.3-0.597,1.3-1.334V7.005H14V14.005z"/>
</svg>
