<?xml version="1.0" encoding="utf-8"?>
<!-- Generator: Adobe Illustrator 16.0.0, SVG Export Plug-In . SVG Version: 6.00 Build 0)  -->
<!DOCTYPE svg PUBLIC "-//W3C//DTD SVG 1.1//EN" "http://www.w3.org/Graphics/SVG/1.1/DTD/svg11.dtd">
<svg version="1.1" id="Layer_1" xmlns="http://www.w3.org/2000/svg" xmlns:xlink="http://www.w3.org/1999/xlink" x="0px" y="0px"
	 width="16px" height="16px" viewBox="0 0 16 16" enable-background="new 0 0 16 16" xml:space="preserve">
<g>
	<g>
		<path d="M14,0H2C0.896,0,0,0.896,0,2v12c0,1.104,0.896,2,2,2h12c1.104,0,2-0.896,2-2V2C16,0.896,15.104,0,14,0z M6,1.001
			c0.552,0,1,0.447,1,0.999c0,0.553-0.448,1-1,1S5,2.553,5,2C5,1.448,5.448,1.001,6,1.001z M3,1.001c0.552,0,1,0.447,1,0.999
			c0,0.553-0.448,1-1,1S2,2.553,2,2C2,1.448,2.448,1.001,3,1.001z M14.001,14H2V4h12.001V14z"/>
	</g>
</g>
</svg>
